<?xml version="1.0" encoding="UTF-8"?>
<mxfile host="app.diagrams.net" modified="2025-07-26T10:00:00.000Z" agent="5.0" etag="v1.0" version="24.7.6">
  <diagram name="Network Security" id="network-security">
    <mxGraphModel dx="1422" dy="794" grid="1" gridSize="10" guides="1" tooltips="1" connect="1" arrows="1" fold="1" page="1" pageScale="1" pageWidth="1654" pageHeight="1169" math="0" shadow="0">
      <root>
        <mxCell id="0"/>
        <mxCell id="1" parent="0"/>
        
        <mxCell id="title" value="Vehicle Tracking - Network &amp; Security Architecture" style="text;html=1;strokeColor=none;fillColor=none;align=center;verticalAlign=middle;whiteSpace=wrap;rounded=0;fontSize=18;fontStyle=1;" vertex="1" parent="1">
          <mxGeometry x="500" y="20" width="500" height="30" as="geometry"/>
        </mxCell>
        
        <mxCell id="internet" value="Internet" style="ellipse;shape=cloud;whiteSpace=wrap;html=1;fillColor=#E1F5FE;strokeColor=#0277BD;" vertex="1" parent="1">
          <mxGeometry x="50" y="80" width="120" height="60" as="geometry"/>
        </mxCell>
        
        <mxCell id="cloudfront" value="CloudFront CDN" style="rounded=1;whiteSpace=wrap;html=1;fillColor=#FF9800;strokeColor=#F57C00;fontColor=white;" vertex="1" parent="1">
          <mxGeometry x="220" y="80" width="120" height="60" as="geometry"/>
        </mxCell>
        
        <mxCell id="waf" value="AWS WAF" style="rounded=1;whiteSpace=wrap;html=1;fillColor=#F44336;strokeColor=#D32F2F;fontColor=white;" vertex="1" parent="1">
          <mxGeometry x="220" y="160" width="120" height="60" as="geometry"/>
        </mxCell>
        
        <mxCell id="vpc" value="VPC (10.0.0.0/16)" style="rounded=1;whiteSpace=wrap;html=1;fillColor=#E8F5E8;strokeColor=#4CAF50;verticalAlign=top;fontSize=14;fontStyle=1;" vertex="1" parent="1">
          <mxGeometry x="400" y="60" width="1000" height="700" as="geometry"/>
        </mxCell>
        
        <mxCell id="igw" value="Internet Gateway" style="rounded=1;whiteSpace=wrap;html=1;fillColor=#2196F3;strokeColor=#1976D2;fontColor=white;" vertex="1" parent="1">
          <mxGeometry x="600" y="100" width="120" height="50" as="geometry"/>
        </mxCell>
        
        <mxCell id="public-a" value="Public Subnet AZ-A&#xa;(10.0.1.0/24)" style="rounded=1;whiteSpace=wrap;html=1;fillColor=#C8E6C9;strokeColor=#4CAF50;verticalAlign=top;" vertex="1" parent="1">
          <mxGeometry x="450" y="180" width="200" height="120" as="geometry"/>
        </mxCell>
        
        <mxCell id="public-b" value="Public Subnet AZ-B&#xa;(10.0.2.0/24)" style="rounded=1;whiteSpace=wrap;html=1;fillColor=#C8E6C9;strokeColor=#4CAF50;verticalAlign=top;" vertex="1" parent="1">
          <mxGeometry x="680" y="180" width="200" height="120" as="geometry"/>
        </mxCell>
        
        <mxCell id="nat-a" value="NAT Gateway A" style="rounded=1;whiteSpace=wrap;html=1;fillColor=#FF9800;strokeColor=#F57C00;fontColor=white;" vertex="1" parent="1">
          <mxGeometry x="470" y="220" width="100" height="40" as="geometry"/>
        </mxCell>
        
        <mxCell id="nat-b" value="NAT Gateway B" style="rounded=1;whiteSpace=wrap;html=1;fillColor=#FF9800;strokeColor=#F57C00;fontColor=white;" vertex="1" parent="1">
          <mxGeometry x="700" y="220" width="100" height="40" as="geometry"/>
        </mxCell>
        
        <mxCell id="alb" value="Application Load Balancer" style="rounded=1;whiteSpace=wrap;html=1;fillColor=#9C27B0;strokeColor=#7B1FA2;fontColor=white;" vertex="1" parent="1">
          <mxGeometry x="600" y="260" width="120" height="40" as="geometry"/>
        </mxCell>
        
        <mxCell id="private-a" value="Private Subnet AZ-A&#xa;(10.0.3.0/24)" style="rounded=1;whiteSpace=wrap;html=1;fillColor=#BBDEFB;strokeColor=#2196F3;verticalAlign=top;" vertex="1" parent="1">
          <mxGeometry x="450" y="330" width="200" height="100" as="geometry"/>
        </mxCell>
        
        <mxCell id="private-b" value="Private Subnet AZ-B&#xa;(10.0.4.0/24)" style="rounded=1;whiteSpace=wrap;html=1;fillColor=#BBDEFB;strokeColor=#2196F3;verticalAlign=top;" vertex="1" parent="1">
          <mxGeometry x="680" y="330" width="200" height="100" as="geometry"/>
        </mxCell>
        
        <mxCell id="lambda-a" value="Lambda Functions" style="rounded=1;whiteSpace=wrap;html=1;fillColor=#FF5722;strokeColor=#D84315;fontColor=white;" vertex="1" parent="1">
          <mxGeometry x="470" y="370" width="80" height="40" as="geometry"/>
        </mxCell>
        
        <mxCell id="lambda-b" value="Sales APIs" style="rounded=1;whiteSpace=wrap;html=1;fillColor=#4CAF50;strokeColor=#2E7D32;fontColor=white;" vertex="1" parent="1">
          <mxGeometry x="560" y="370" width="80" height="40" as="geometry"/>
        </mxCell>
        
        <mxCell id="lambda-c" value="Fleet Dashboard" style="rounded=1;whiteSpace=wrap;html=1;fillColor=#FF5722;strokeColor=#D84315;fontColor=white;" vertex="1" parent="1">
          <mxGeometry x="700" y="370" width="80" height="40" as="geometry"/>
        </mxCell>
        
        <mxCell id="lambda-d" value="Video Processor" style="rounded=1;whiteSpace=wrap;html=1;fillColor=#FF5722;strokeColor=#D84315;fontColor=white;" vertex="1" parent="1">
          <mxGeometry x="790" y="370" width="80" height="40" as="geometry"/>
        </mxCell>
        
        <mxCell id="db-a" value="Database Subnet AZ-A&#xa;(10.0.5.0/24)" style="rounded=1;whiteSpace=wrap;html=1;fillColor=#F3E5F5;strokeColor=#9C27B0;verticalAlign=top;" vertex="1" parent="1">
          <mxGeometry x="450" y="460" width="200" height="80" as="geometry"/>
        </mxCell>
        
        <mxCell id="db-b" value="Database Subnet AZ-B&#xa;(10.0.6.0/24)" style="rounded=1;whiteSpace=wrap;html=1;fillColor=#F3E5F5;strokeColor=#9C27B0;verticalAlign=top;" vertex="1" parent="1">
          <mxGeometry x="680" y="460" width="200" height="80" as="geometry"/>
        </mxCell>
        
        <mxCell id="redis-a" value="ElastiCache Redis Primary" style="rounded=1;whiteSpace=wrap;html=1;fillColor=#FF5722;strokeColor=#D84315;fontColor=white;" vertex="1" parent="1">
          <mxGeometry x="470" y="490" width="120" height="30" as="geometry"/>
        </mxCell>
        
        <mxCell id="redis-b" value="ElastiCache Redis Replica" style="rounded=1;whiteSpace=wrap;html=1;fillColor=#FF5722;strokeColor=#D84315;fontColor=white;" vertex="1" parent="1">
          <mxGeometry x="700" y="490" width="120" height="30" as="geometry"/>
        </mxCell>
        
        <mxCell id="managed" value="AWS Managed Services" style="rounded=1;whiteSpace=wrap;html=1;fillColor=#FFF8E1;strokeColor=#FFC107;verticalAlign=top;fontSize=14;fontStyle=1;" vertex="1" parent="1">
          <mxGeometry x="920" y="100" width="450" height="440" as="geometry"/>
        </mxCell>
        
        <mxCell id="dynamodb" value="DynamoDB&#xa;13 Tables" style="rounded=1;whiteSpace=wrap;html=1;fillColor=#2196F3;strokeColor=#1976D2;fontColor=white;" vertex="1" parent="1">
          <mxGeometry x="950" y="140" width="100" height="50" as="geometry"/>
        </mxCell>
        
        <mxCell id="s3" value="S3 Buckets&#xa;6 Buckets" style="rounded=1;whiteSpace=wrap;html=1;fillColor=#4CAF50;strokeColor=#2E7D32;fontColor=white;" vertex="1" parent="1">
          <mxGeometry x="1070" y="140" width="100" height="50" as="geometry"/>
        </mxCell>
        
        <mxCell id="api-gw" value="API Gateway&#xa;REST API" style="rounded=1;whiteSpace=wrap;html=1;fillColor=#9C27B0;strokeColor=#7B1FA2;fontColor=white;" vertex="1" parent="1">
          <mxGeometry x="1190" y="140" width="100" height="50" as="geometry"/>
        </mxCell>
        
        <mxCell id="cognito" value="Cognito&#xa;User Pools" style="rounded=1;whiteSpace=wrap;html=1;fillColor=#FF9800;strokeColor=#F57C00;fontColor=white;" vertex="1" parent="1">
          <mxGeometry x="950" y="210" width="100" height="50" as="geometry"/>
        </mxCell>
        
        <mxCell id="iot" value="IoT Core&#xa;MQTT Broker" style="rounded=1;whiteSpace=wrap;html=1;fillColor=#607D8B;strokeColor=#455A64;fontColor=white;" vertex="1" parent="1">
          <mxGeometry x="1070" y="210" width="100" height="50" as="geometry"/>
        </mxCell>
        
        <mxCell id="kinesis" value="Kinesis&#xa;Data Streams" style="rounded=1;whiteSpace=wrap;html=1;fillColor=#E91E63;strokeColor=#C2185B;fontColor=white;" vertex="1" parent="1">
          <mxGeometry x="1190" y="210" width="100" height="50" as="geometry"/>
        </mxCell>
        
        <mxCell id="sns" value="SNS Topics&#xa;Notifications" style="rounded=1;whiteSpace=wrap;html=1;fillColor=#9C27B0;strokeColor=#7B1FA2;fontColor=white;" vertex="1" parent="1">
          <mxGeometry x="950" y="280" width="100" height="50" as="geometry"/>
        </mxCell>
        
        <mxCell id="cloudwatch" value="CloudWatch&#xa;Monitoring" style="rounded=1;whiteSpace=wrap;html=1;fillColor=#F44336;strokeColor=#D32F2F;fontColor=white;" vertex="1" parent="1">
          <mxGeometry x="1070" y="280" width="100" height="50" as="geometry"/>
        </mxCell>
        
        <mxCell id="rekognition" value="Rekognition&#xa;AI Analysis" style="rounded=1;whiteSpace=wrap;html=1;fillColor=#FF9800;strokeColor=#F57C00;fontColor=white;" vertex="1" parent="1">
          <mxGeometry x="1190" y="280" width="100" height="50" as="geometry"/>
        </mxCell>
        
        <mxCell id="security" value="Security Groups" style="rounded=1;whiteSpace=wrap;html=1;fillColor=#FFEBEE;strokeColor=#F44336;verticalAlign=top;fontSize=12;fontStyle=1;" vertex="1" parent="1">
          <mxGeometry x="950" y="360" width="180" height="160" as="geometry"/>
        </mxCell>
        
        <mxCell id="sg1" value="Web-SG: 80,443" style="rounded=1;whiteSpace=wrap;html=1;fillColor=#F44336;strokeColor=#D32F2F;fontColor=white;fontSize=10;" vertex="1" parent="1">
          <mxGeometry x="960" y="390" width="80" height="25" as="geometry"/>
        </mxCell>
        
        <mxCell id="sg2" value="App-SG: 8080" style="rounded=1;whiteSpace=wrap;html=1;fillColor=#F44336;strokeColor=#D32F2F;fontColor=white;fontSize=10;" vertex="1" parent="1">
          <mxGeometry x="1050" y="390" width="70" height="25" as="geometry"/>
        </mxCell>
        
        <mxCell id="sg3" value="DB-SG: 6379" style="rounded=1;whiteSpace=wrap;html=1;fillColor=#F44336;strokeColor=#D32F2F;fontColor=white;fontSize=10;" vertex="1" parent="1">
          <mxGeometry x="960" y="425" width="80" height="25" as="geometry"/>
        </mxCell>
        
        <mxCell id="sg4" value="Lambda-SG" style="rounded=1;whiteSpace=wrap;html=1;fillColor=#F44336;strokeColor=#D32F2F;fontColor=white;fontSize=10;" vertex="1" parent="1">
          <mxGeometry x="1050" y="425" width="70" height="25" as="geometry"/>
        </mxCell>
        
        <mxCell id="iam" value="IAM Roles" style="rounded=1;whiteSpace=wrap;html=1;fillColor=#E8F5E8;strokeColor=#4CAF50;verticalAlign=top;fontSize=12;fontStyle=1;" vertex="1" parent="1">
          <mxGeometry x="1150" y="360" width="140" height="160" as="geometry"/>
        </mxCell>
        
        <mxCell id="role1" value="Lambda Role" style="rounded=1;whiteSpace=wrap;html=1;fillColor=#4CAF50;strokeColor=#2E7D32;fontColor=white;fontSize=10;" vertex="1" parent="1">
          <mxGeometry x="1160" y="390" width="60" height="25" as="geometry"/>
        </mxCell>
        
        <mxCell id="role2" value="API Role" style="rounded=1;whiteSpace=wrap;html=1;fillColor=#4CAF50;strokeColor=#2E7D32;fontColor=white;fontSize=10;" vertex="1" parent="1">
          <mxGeometry x="1230" y="390" width="50" height="25" as="geometry"/>
        </mxCell>
        
        <mxCell id="role3" value="IoT Role" style="rounded=1;whiteSpace=wrap;html=1;fillColor=#4CAF50;strokeColor=#2E7D32;fontColor=white;fontSize=10;" vertex="1" parent="1">
          <mxGeometry x="1160" y="425" width="60" height="25" as="geometry"/>
        </mxCell>
        
        <mxCell id="role4" value="Sales Role" style="rounded=1;whiteSpace=wrap;html=1;fillColor=#4CAF50;strokeColor=#2E7D32;fontColor=white;fontSize=10;" vertex="1" parent="1">
          <mxGeometry x="1230" y="425" width="50" height="25" as="geometry"/>
        </mxCell>
        
        <mxCell id="compliance" value="Compliance Standards" style="rounded=1;whiteSpace=wrap;html=1;fillColor=#E3F2FD;strokeColor=#2196F3;verticalAlign=top;fontSize=12;fontStyle=1;" vertex="1" parent="1">
          <mxGeometry x="50" y="180" width="150" height="120" as="geometry"/>
        </mxCell>
        
        <mxCell id="comp-text" value="• SOC 2 Type II&#xa;• GDPR Compliant&#xa;• ISO 27001&#xa;• PCI DSS Ready&#xa;• HIPAA Compatible" style="text;html=1;strokeColor=none;fillColor=none;align=left;verticalAlign=top;whiteSpace=wrap;rounded=0;fontSize=10;" vertex="1" parent="1">
          <mxGeometry x="60" y="210" width="130" height="80" as="geometry"/>
        </mxCell>
        
        <mxCell id="performance" value="Network Performance" style="rounded=1;whiteSpace=wrap;html=1;fillColor=#FFF8E1;strokeColor=#FFC107;verticalAlign=top;fontSize=12;fontStyle=1;" vertex="1" parent="1">
          <mxGeometry x="50" y="320" width="150" height="100" as="geometry"/>
        </mxCell>
        
        <mxCell id="perf-text" value="• Latency: &lt;50ms&#xa;• Bandwidth: 10 Gbps&#xa;• Availability: 99.99%&#xa;• Auto-scaling: Yes" style="text;html=1;strokeColor=none;fillColor=none;align=left;verticalAlign=top;whiteSpace=wrap;rounded=0;fontSize=10;" vertex="1" parent="1">
          <mxGeometry x="60" y="350" width="130" height="60" as="geometry"/>
        </mxCell>
        
        <!-- Arrows -->
        <mxCell id="arrow1" style="edgeStyle=orthogonalEdgeStyle;rounded=0;orthogonalLoop=1;jettySize=auto;html=1;strokeWidth=2;strokeColor=#0277BD;" edge="1" parent="1" source="internet" target="cloudfront">
          <mxGeometry relative="1" as="geometry"/>
        </mxCell>
        
        <mxCell id="arrow2" style="edgeStyle=orthogonalEdgeStyle;rounded=0;orthogonalLoop=1;jettySize=auto;html=1;strokeWidth=2;strokeColor=#FF9800;" edge="1" parent="1" source="cloudfront" target="waf">
          <mxGeometry relative="1" as="geometry"/>
        </mxCell>
        
        <mxCell id="arrow3" style="edgeStyle=orthogonalEdgeStyle;rounded=0;orthogonalLoop=1;jettySize=auto;html=1;strokeWidth=2;strokeColor=#F44336;" edge="1" parent="1" source="waf" target="igw">
          <mxGeometry relative="1" as="geometry"/>
        </mxCell>
        
        <mxCell id="arrow4" style="edgeStyle=orthogonalEdgeStyle;rounded=0;orthogonalLoop=1;jettySize=auto;html=1;strokeWidth=2;strokeColor=#2196F3;" edge="1" parent="1" source="igw" target="alb">
          <mxGeometry relative="1" as="geometry"/>
        </mxCell>
        
        <mxCell id="arrow5" style="edgeStyle=orthogonalEdgeStyle;rounded=0;orthogonalLoop=1;jettySize=auto;html=1;strokeWidth=2;strokeColor=#9C27B0;" edge="1" parent="1" source="alb" target="lambda-a">
          <mxGeometry relative="1" as="geometry"/>
        </mxCell>
        
        <mxCell id="arrow6" style="edgeStyle=orthogonalEdgeStyle;rounded=0;orthogonalLoop=1;jettySize=auto;html=1;strokeWidth=2;strokeColor=#FF5722;" edge="1" parent="1" source="lambda-a" target="redis-a">
          <mxGeometry relative="1" as="geometry"/>
        </mxCell>
        
        <mxCell id="arrow7" style="edgeStyle=orthogonalEdgeStyle;rounded=0;orthogonalLoop=1;jettySize=auto;html=1;strokeWidth=2;strokeColor=#4CAF50;" edge="1" parent="1" source="lambda-b" target="dynamodb">
          <mxGeometry relative="1" as="geometry"/>
        </mxCell>
        
      </root>
    </mxGraphModel>
  </diagram>
</mxfile>
